# xmcd CD database file generated by Grip 3.3.1
# 
# Track frame offsets:
#       150
#       35917
#       103362
#       156877
#       179692
#       205512
#       259712
#       286145
# 
# Disc length: 4197 seconds
# 
# Revision: 4
# Processed by: cddbd v1.5.2PL0 Copyright (c) Steve Scherf et al.
# Submitted via: Grip 3.3.1
# 
DISCID=74106308
DTITLE=Miles Davis - The Columbia Years 1955-1985 (2)
DYEAR=1988
DGENRE=Jazz
TTITLE0=Bye Bye Blackbird
TTITLE1=My Funny Valentine
TTITLE2=Love for Sale
TTITLE3=Budo
TTITLE4=Miles
TTITLE5=Filles De Kilimanjaro
TTITLE6=Fran-Dance
TTITLE7=Seven Steps to Heaven
EXTD=
EXTT0=
EXTT1=
EXTT2=
EXTT3=
EXTT4=
EXTT5=
EXTT6=
EXTT7=
PLAYORDER=
